<svg width="225" height="225" viewBox="0 0 225 225" fill="none" xmlns="http://www.w3.org/2000/svg">
<circle cx="7.5" cy="7.5" r="7.5" fill="#606060"/>
<circle cx="7.5" cy="127.5" r="7.5" fill="#606060"/>
<circle cx="7.5" cy="67.5" r="7.5" fill="#606060"/>
<circle cx="7.5" cy="187.5" r="7.5" fill="#606060"/>
<circle cx="7.5" cy="37.5" r="7.5" fill="#606060"/>
<circle cx="7.5" cy="157.5" r="7.5" fill="#606060"/>
<circle cx="7.5" cy="97.5" r="7.5" fill="#606060"/>
<circle cx="7.5" cy="217.5" r="7.5" fill="#606060"/>
<circle cx="127.5" cy="7.5" r="7.5" fill="#606060"/>
<circle cx="127.5" cy="127.5" r="7.5" fill="#606060"/>
<circle cx="127.5" cy="67.5" r="7.5" fill="#606060"/>
<circle cx="127.5" cy="187.5" r="7.5" fill="#606060"/>
<circle cx="127.5" cy="37.5" r="7.5" fill="#606060"/>
<circle cx="127.5" cy="157.5" r="7.5" fill="#606060"/>
<circle cx="127.5" cy="97.5" r="7.5" fill="#606060"/>
<circle cx="127.5" cy="217.5" r="7.5" fill="#606060"/>
<circle cx="67.5" cy="7.5" r="7.5" fill="#606060"/>
<circle cx="67.5" cy="127.5" r="7.5" fill="#606060"/>
<circle cx="67.5" cy="67.5" r="7.5" fill="#606060"/>
<circle cx="67.5" cy="187.5" r="7.5" fill="#606060"/>
<circle cx="67.5" cy="37.5" r="7.5" fill="#606060"/>
<circle cx="67.5" cy="157.5" r="7.5" fill="#606060"/>
<circle cx="67.5" cy="97.5" r="7.5" fill="#606060"/>
<circle cx="67.5" cy="217.5" r="7.5" fill="#606060"/>
<circle cx="187.5" cy="7.5" r="7.5" fill="#606060"/>
<circle cx="187.5" cy="127.5" r="7.5" fill="#606060"/>
<circle cx="187.5" cy="67.5" r="7.5" fill="#606060"/>
<circle cx="187.5" cy="187.5" r="7.5" fill="#606060"/>
<circle cx="187.5" cy="37.5" r="7.5" fill="#606060"/>
<circle cx="187.5" cy="157.5" r="7.5" fill="#606060"/>
<circle cx="187.5" cy="97.5" r="7.5" fill="#606060"/>
<circle cx="187.5" cy="217.5" r="7.5" fill="#606060"/>
<circle cx="37.5" cy="7.5" r="7.5" fill="#606060"/>
<circle cx="37.5" cy="127.5" r="7.5" fill="#606060"/>
<circle cx="37.5" cy="67.5" r="7.5" fill="#606060"/>
<circle cx="37.5" cy="187.5" r="7.5" fill="#606060"/>
<circle cx="37.5" cy="37.5" r="7.5" fill="#606060"/>
<circle cx="37.5" cy="157.5" r="7.5" fill="#606060"/>
<circle cx="37.5" cy="97.5" r="7.5" fill="#606060"/>
<circle cx="37.5" cy="217.5" r="7.5" fill="#606060"/>
<circle cx="157.5" cy="7.5" r="7.5" fill="#606060"/>
<circle cx="157.5" cy="127.5" r="7.5" fill="#606060"/>
<circle cx="157.5" cy="67.5" r="7.5" fill="#606060"/>
<circle cx="157.5" cy="187.5" r="7.5" fill="#606060"/>
<circle cx="157.5" cy="37.5" r="7.5" fill="#606060"/>
<circle cx="157.5" cy="157.5" r="7.5" fill="#606060"/>
<circle cx="157.5" cy="97.5" r="7.5" fill="#606060"/>
<circle cx="157.5" cy="217.5" r="7.5" fill="#606060"/>
<circle cx="97.5" cy="7.5" r="7.5" fill="#606060"/>
<circle cx="97.5" cy="127.5" r="7.5" fill="#606060"/>
<circle cx="97.5" cy="67.5" r="7.5" fill="#606060"/>
<circle cx="97.5" cy="187.5" r="7.5" fill="#606060"/>
<circle cx="97.5" cy="37.5" r="7.5" fill="#606060"/>
<circle cx="97.5" cy="157.5" r="7.5" fill="#606060"/>
<circle cx="97.5" cy="97.5" r="7.5" fill="#606060"/>
<circle cx="97.5" cy="217.5" r="7.5" fill="#606060"/>
<circle cx="217.5" cy="7.5" r="7.5" fill="#606060"/>
<circle cx="217.5" cy="127.5" r="7.5" fill="#606060"/>
<circle cx="217.5" cy="67.5" r="7.5" fill="#606060"/>
<circle cx="217.5" cy="187.5" r="7.5" fill="#606060"/>
<circle cx="217.5" cy="37.5" r="7.5" fill="#606060"/>
<circle cx="217.5" cy="157.5" r="7.5" fill="#606060"/>
<circle cx="217.5" cy="97.5" r="7.5" fill="#606060"/>
<circle cx="217.5" cy="217.5" r="7.5" fill="#606060"/>
</svg>
