<svg width="89" height="104" viewBox="0 0 89 104" fill="none" xmlns="http://www.w3.org/2000/svg">
<path d="M0 32.3646C0 29.6441 1.38249 27.1101 3.67003 25.6377L39.2658 2.72546C41.8536 1.05974 45.1675 1.02616 47.7886 2.63911L85.1928 25.6571C87.5588 27.1131 89 29.6923 89 32.4704V75.6278C89 78.6203 87.3299 81.3626 84.6711 82.7358L47.2551 102.061C44.9056 103.274 42.1082 103.248 39.7815 101.991L4.19755 82.7676C1.61165 81.3707 0 78.6682 0 75.7291V32.3646Z" fill="url(#paint0_linear_155_193)"/>
<path d="M44.5 34.4375C34.9937 34.4375 27.4375 41.9937 27.4375 51.5C27.4375 61.0063 34.9937 68.5625 44.5 68.5625C54.0063 68.5625 61.5625 61.0063 61.5625 51.5C61.5625 41.9937 54.0063 34.4375 44.5 34.4375ZM51.0812 60.0312L44.5 53.45L37.9188 60.0312L35.9688 58.0812L42.55 51.5L35.9688 44.9188L37.9188 42.9688L44.5 49.55L51.0812 42.9688L53.0312 44.9188L46.45 51.5L53.0312 58.0812L51.0812 60.0312Z" fill="white"/>
<defs>
<linearGradient id="paint0_linear_155_193" x1="44.5" y1="0" x2="44.5" y2="104" gradientUnits="userSpaceOnUse">
<stop stop-color="#EB5D77"/>
<stop offset="1" stop-color="#C51F1F"/>
</linearGradient>
</defs>
</svg>
