<svg width="429" height="263" viewBox="0 0 429 263" fill="none" xmlns="http://www.w3.org/2000/svg">
<rect x="313" y="187" width="16.024" height="5.3" transform="rotate(68 313 187)" fill="#755FFE" fill-opacity="0.65"/>
<rect x="258" y="55" width="13.024" height="5.3" transform="rotate(-167 258 55)" fill="#4BC8EF"/>
<rect x="173" y="144" width="10.024" height="6.3" transform="rotate(154 173 144)" fill="#F62584" fill-opacity="0.75"/>
<rect x="321" y="117" width="8.024" height="8.3" transform="rotate(72 321 117)" fill="#FF21FB" fill-opacity="0.85"/>
<rect x="397" y="249" width="16.024" height="5.3" transform="rotate(-161 397 249)" fill="#FFED36"/>
<rect x="164" y="20" width="4.024" height="5.3" transform="rotate(-18 164 20)" fill="#4BC8EF" fill-opacity="0.65"/>
<rect x="393" y="84" width="13.024" height="6.3" transform="rotate(9 393 84)" fill="#9AF5FC" fill-opacity="0.35"/>
<rect x="146" y="110" width="8.024" height="7.3" transform="rotate(140 146 110)" fill="#FFED36" fill-opacity="0.65"/>
<rect x="416" y="256" width="7.024" height="5.3" transform="rotate(-111 416 256)" fill="#4BC8EF" fill-opacity="0.6"/>
<rect x="241" y="252" width="14.024" height="4.3" transform="rotate(94 241 252)" fill="#FF21FB" fill-opacity="0.35"/>
<rect x="6" y="138" width="5.024" height="7.3" transform="rotate(136 6 138)" fill="#F54721"/>
<rect x="252" y="35" width="4.024" height="7.3" transform="rotate(177 252 35)" fill="#FC9E1C" fill-opacity="0.85"/>
<rect x="286" y="153" width="8.024" height="6.3" transform="rotate(-143 286 153)" fill="#BA3E03" fill-opacity="0.85"/>
<rect x="146" y="200" width="3.024" height="4.3" transform="rotate(127 146 200)" fill="#FC9E1C" fill-opacity="0.85"/>
<circle cx="246.58" cy="28.58" r="1.58" fill="#FC9E1C" fill-opacity="0.45"/>
<circle cx="396.58" cy="152.58" r="2.58" fill="#FF21FB" fill-opacity="0.35"/>
<circle cx="115.58" cy="216.58" r="1.58" fill="#C9FCBE" fill-opacity="0.65"/>
<circle cx="40.58" cy="247.58" r="2.58" fill="#03A3F5" fill-opacity="0.65"/>
<circle cx="406.08" cy="23.08" r="1.08" fill="#4BC8EF" fill-opacity="0.45"/>
<circle cx="202.08" cy="80.08" r="2.08" fill="#F54721" fill-opacity="0.9"/>
<circle cx="411.08" cy="144.08" r="2.08" fill="#FF21FB" fill-opacity="0.45"/>
<circle cx="386.58" cy="165.58" r="1.58" fill="#C9FCBE" fill-opacity="0.35"/>
<circle cx="197.08" cy="106.08" r="1.08" fill="#9AF5FC"/>
<circle cx="262.08" cy="33.08" r="3.08" fill="#C9FCBE" fill-opacity="0.6"/>
<circle cx="288.08" cy="22.08" r="3.08" fill="#9AF5FC" fill-opacity="0.35"/>
<circle cx="350.58" cy="177.58" r="2.58" fill="#FC9E1C" fill-opacity="0.75"/>
<path d="M349.039 213.151L343.927 212.342L344.736 207.229L349.849 208.039L349.039 213.151Z" fill="#FF21FB" fill-opacity="0.85"/>
<path d="M373.808 29.345L379.125 25.8924L379.457 32.223L373.808 29.345Z" fill="#C9FCBE" fill-opacity="0.9"/>
<path d="M412.848 128.436L412.26 124.721L415.975 124.133L416.564 127.848L412.848 128.436Z" fill="#C9FCBE" fill-opacity="0.6"/>
<path d="M182.67 235.964L183.243 230.516L188.601 229.377L191.34 234.121L187.675 238.192L182.67 235.964Z" fill="#755FFE" fill-opacity="0.75"/>
<path d="M263.631 125.43L258.832 123.491L260.771 118.692L265.57 120.631L263.631 125.43Z" fill="#FFED36" fill-opacity="0.75"/>
<path d="M356.739 134.77L353.456 142.144L348.712 135.614L356.739 134.77Z" fill="#DCBCFA" fill-opacity="0.9"/>
<path d="M102.084 75.2062L106.811 80.6442L99.7377 82.019L102.084 75.2062Z" fill="#DCBCFA" fill-opacity="0.75"/>
<path d="M53.08 103.603L51.5573 109.285L45.8747 107.763L47.3973 102.08L53.08 103.603Z" fill="#9AF5FC" fill-opacity="0.85"/>
<path d="M102.236 222.532L98.5491 222.079L97.8403 218.433L101.089 216.632L103.806 219.165L102.236 222.532Z" fill="#DCBCFA" fill-opacity="0.65"/>
<path d="M228.8 190.692L229.554 197.858L222.971 194.927L228.8 190.692Z" fill="#FF21FB" fill-opacity="0.45"/>
<path d="M189.15 81.2902L192.599 83.6164L192.308 87.7663L188.569 89.5899L185.121 87.2637L185.411 83.1138L189.15 81.2902Z" fill="#480CA7" fill-opacity="0.35"/>
<path d="M285.745 254.651L283.698 257.685L280.047 257.43L278.443 254.14L280.489 251.106L284.14 251.361L285.745 254.651Z" fill="#755FFE" fill-opacity="0.9"/>
<path d="M145.129 7.08L142.179 6.28939L142.969 3.33877L145.92 4.12939L145.129 7.08Z" fill="#FFED36" fill-opacity="0.6"/>
<path d="M74.5111 75.7343L74.8882 68.5388L80.9311 72.4631L74.5111 75.7343Z" fill="#9AF5FC" fill-opacity="0.85"/>
<path d="M279.486 -2.10464L281.049 -2.24142L281.402 -3.77053L282.015 -2.32595L283.579 -2.46272L282.394 -1.43315L283.008 0.0114277L281.662 -0.796838L280.478 0.232736L280.831 -1.29637L279.486 -2.10464Z" fill="#DCBCFA" fill-opacity="0.6"/>
<path d="M310.63 149.792L310.871 147.736L309.467 146.215L311.524 146.456L313.045 145.052L312.804 147.108L314.208 148.63L312.152 148.389L310.63 149.792Z" fill="#FFED36" fill-opacity="0.35"/>
<path d="M329.362 95.0961L327.647 94.4005L326.896 96.0926L326.641 94.2591L324.8 94.4549L326.26 93.317L325.17 91.8208L326.886 92.5164L327.636 90.8243L327.892 92.6578L329.733 92.462L328.272 93.5999L329.362 95.0961Z" fill="#4BC8EF" fill-opacity="0.65"/>
<path d="M356.945 24.1859L358.531 25.1413L359.537 23.5875L359.503 25.4384L361.351 25.5329L359.731 26.4283L360.574 28.0767L358.988 27.1213L357.982 28.6751L358.016 26.8242L356.168 26.7297L357.788 25.8342L356.945 24.1859Z" fill="#4BC8EF" fill-opacity="0.35"/>
<path d="M423.725 181.7L425.011 182.6L426.264 181.656L425.805 183.157L427.091 184.057L425.521 184.084L425.063 185.585L424.552 184.101L422.983 184.128L424.236 183.184L423.725 181.7Z" fill="#C9FCBE" fill-opacity="0.6"/>
<path d="M177.112 87.5487L177.432 89.8223L179.693 90.2209L177.629 91.2274L177.949 93.5009L176.354 91.8494L174.29 92.8558L175.368 90.8287L173.773 89.1772L176.034 89.5759L177.112 87.5487Z" fill="#FC9E1C" fill-opacity="0.65"/>
<path d="M327.95 53.1324L327.83 55.4252L329.973 56.2479L327.756 56.8422L327.636 59.1349L326.385 57.2094L324.167 57.8036L325.612 56.0194L324.362 54.0939L326.505 54.9167L327.95 53.1324Z" fill="#C9FCBE" fill-opacity="0.45"/>
<path d="M345.662 237.739L348.288 238.155L349.495 235.786L349.911 238.412L352.538 238.828L350.168 240.035L350.584 242.662L348.704 240.781L346.335 241.989L347.542 239.619L345.662 237.739Z" fill="#F62584"/>
<path d="M403.714 213.044L406.255 211.037L406.385 207.802L408.392 210.342L411.627 210.473L409.087 212.479L408.956 215.714L406.95 213.174L403.714 213.044Z" fill="#BA3E03" fill-opacity="0.35"/>
<path d="M159.031 83.0808L157.44 81.2053L154.98 81.1921L156.856 79.6012L156.869 77.1419L158.46 79.0174L160.919 79.0306L159.044 80.6215L159.031 83.0808Z" fill="#F62584"/>
<path d="M196.551 48.1128L195.051 48.2158L195.106 49.718L194.267 48.4707L192.993 49.2689L193.653 47.9187L192.325 47.2146L193.825 47.1116L193.771 45.6094L194.61 46.8567L195.883 46.0585L195.223 47.4088L196.551 48.1128Z" fill="#9DED1A" fill-opacity="0.85"/>
<path d="M199.176 152.261L201.351 150.161L200.026 147.445L202.694 148.864L204.868 146.764L204.344 149.741L207.012 151.16L204.019 151.58L203.494 154.557L202.169 151.84L199.176 152.261Z" fill="#DCBCFA" fill-opacity="0.6"/>
<path d="M214.152 75.9134L212.519 75.0423L211.595 76.6466L211.533 74.7965L209.682 74.7988L211.253 73.8199L210.325 72.2179L211.959 73.089L212.882 71.4847L212.945 73.3348L214.796 73.3325L213.225 74.3115L214.152 75.9134Z" fill="#03A3F5"/>
<path d="M309.523 245.096L308.134 246.043L307.949 247.714L307.002 246.326L305.331 246.141L306.72 245.193L306.904 243.523L307.852 244.911L309.523 245.096Z" fill="#FF21FB" fill-opacity="0.75"/>
<path d="M390.087 105.848L388.485 104.92L387.506 106.491L387.508 104.64L385.658 104.578L387.262 103.654L386.391 102.021L387.993 102.948L388.972 101.377L388.97 103.229L390.82 103.291L389.215 104.214L390.087 105.848Z" fill="#480CA7" fill-opacity="0.35"/>
<path d="M56.5113 18.6564L58.4646 17.0216L56.8939 15.0165L59.2863 15.8906L60.2375 13.5278L60.6766 16.0368L63.1985 15.6791L61.2453 17.3139L62.8159 19.3191L60.4235 18.4449L59.4723 20.8077L59.0332 18.2988L56.5113 18.6564Z" fill="#C9FCBE" fill-opacity="0.6"/>
<path d="M198.349 264.109L195.475 264.458L195.731 267.342L193.992 265.027L191.622 266.691L192.757 264.027L190.132 262.807L193.006 262.458L192.75 259.574L194.489 261.889L196.858 260.225L195.724 262.889L198.349 264.109Z" fill="#F54721" fill-opacity="0.35"/>
<path d="M367.446 198.5L366.145 197.747L365.35 199.023L365.352 197.52L363.85 197.469L365.153 196.719L364.445 195.393L365.746 196.146L366.541 194.87L366.539 196.374L368.042 196.424L366.739 197.174L367.446 198.5Z" fill="#FF21FB" fill-opacity="0.85"/>
<path d="M17.3232 124.496L14.9975 123.207L13.0527 125.02L13.5601 122.41L11.2344 121.121L13.8737 120.797L14.3811 118.187L15.5049 120.597L18.1442 120.273L16.1994 122.086L17.3232 124.496Z" fill="#DCBCFA" fill-opacity="0.45"/>
<path d="M325.721 246.65L324.276 248.308L325.886 249.806L323.728 249.384L323.236 251.527L322.523 249.447L320.421 250.092L321.866 248.434L320.255 246.937L322.413 247.359L322.905 245.216L323.619 247.296L325.721 246.65Z" fill="#4BC8EF" fill-opacity="0.45"/>
</svg>
